<?xml version="1.0" encoding="utf-8"?>
<!-- Generator: Adobe Illustrator 16.0.0, SVG Export Plug-In . SVG Version: 6.00 Build 0)  -->
<!DOCTYPE svg PUBLIC "-//W3C//DTD SVG 1.1//EN" "http://www.w3.org/Graphics/SVG/1.1/DTD/svg11.dtd">
<svg version="1.1" id="Layer_1" xmlns="http://www.w3.org/2000/svg" xmlns:xlink="http://www.w3.org/1999/xlink" x="0px" y="0px"
	 width="841.89px" height="307.896px" viewBox="0 0 841.89 307.896" enable-background="new 0 0 841.89 307.896"
	 xml:space="preserve">
<g>
	<defs>
		<rect id="SVGID_1_" width="841.89" height="307.896"/>
	</defs>
	<clipPath id="SVGID_2_">
		<use xlink:href="#SVGID_1_"  overflow="visible"/>
	</clipPath>
	<path clip-path="url(#SVGID_2_)" fill="#FFFFFF" d="M462.07,191.096c-99.578,15.792-162.019,28.158-162.019,28.158
		c50.804-0.793,95.991-1.4,161.166-4.971C461.433,206.572,461.859,195.278,462.07,191.096"/>
	<path clip-path="url(#SVGID_2_)" fill="#FFFFFF" d="M822.777,150.481c-43.676-4.908-141.31,8.655-232.46,22.061
		c-19.237,2.829-56.57,7.532-75.68,10.471c-0.056,2.553-0.546,22.967-0.653,28.183c78.92-5.066,172.853-13.495,224.308-21.003
		C828.66,177.007,868.632,155.633,822.777,150.481"/>
	<path clip-path="url(#SVGID_2_)" fill="#FFFFFF" d="M346.271,92.094c-0.642,5.469-1.314,10.934-1.919,16.407
		c-1.79,16.213-3.34,32.446-3.734,48.764c-0.193,7.98-0.171,15.959,0.841,23.903c0.458,3.591-0.416,5.31-3.743,6.61
		c-6.292,2.46-12.55,2.159-18.563-0.965c-2.925-1.521-4.659-4.046-4.782-7.38c-0.23-6.216-0.579-12.446-0.394-18.656
		c0.574-19.211,2.854-38.28,5.236-57.333c1.97-15.745,3.996-31.483,5.985-47.226c0.12-0.954,0.149-1.921,0.188-2.884
		c0.105-2.579,0.674-3.562,3.158-4.117c2.38-0.532,4.847-0.88,7.284-0.924c7.184-0.128,14.111,1.333,20.818,3.874
		c0.654,0.248,1.27,0.597,1.92,0.859c2.232,0.902,3.275,2.448,3.643,4.936c3.415,23.17,6.961,46.32,10.468,69.477
		c0.153,1.006,0.285,2.014,0.427,3.021c0.175,0.012,0.35,0.024,0.524,0.036c0.206-0.617,0.447-1.225,0.615-1.852
		c7.895-29.628,18.36-58.36,29.991-86.699c1.6-3.9,4.035-5.776,8.09-6.352c6.333-0.899,12.577-0.973,18.77,0.784
		c0.674,0.192,1.346,0.404,1.997,0.659c4.041,1.586,4.699,2.584,4.201,6.906c-2.051,17.854-4.244,35.692-6.188,53.557
		c-1.88,17.261-3.297,34.569-3.377,51.943c-0.032,7.09,0.471,14.188,0.91,21.272c0.256,4.119-0.53,5.846-4.466,7.174
		c-5.611,1.893-11.235,1.737-16.686-0.674c-3.555-1.572-5.621-4.25-5.987-8.271c-0.768-8.412-0.549-16.821-0.104-25.228
		c1.122-21.199,3.536-42.28,5.851-63.371c0.092-0.844,0.124-1.695-0.198-2.623c-0.21,0.542-0.431,1.08-0.627,1.628
		c-7.874,22.056-15.222,44.28-21.182,66.939c-2.297,8.734-4.53,17.492-5.648,26.477c-0.244,1.964-1.294,3.036-3.038,3.494
		c-4.311,1.132-8.528,0.819-12.545-1.187c-1.899-0.948-3.157-2.457-3.581-4.603c-0.681-3.441-1.493-6.859-2.077-10.316
		c-3.709-21.969-7.369-43.946-11.049-65.919c-0.124-0.742-0.288-1.477-0.433-2.215C346.668,92.045,346.469,92.069,346.271,92.094"/>
	<path clip-path="url(#SVGID_2_)" fill="#FFFFFF" d="M658.767,132.678c-0.898,1.295-1.701,2.427-2.479,3.575
		c-11.476,16.957-37.039,14.244-45.989-3.543c-2.849-5.662-4.313-11.683-4.739-17.943c-0.77-11.298,0.281-22.431,3.621-33.288
		c2.272-7.389,5.753-14.128,11.203-19.719c7.703-7.903,17.228-11.537,28.129-11.717c4.395-0.074,8.459,1.329,12.238,3.545
		c0.824,0.485,1.641,0.987,2.681,1.613c0.173-0.819,0.356-1.462,0.44-2.117c1.818-14.264,3.639-28.527,5.423-42.795
		c0.228-1.824,0.305-3.669,0.389-5.507c0.102-2.218,0.678-3.212,2.851-3.836c1.672-0.48,3.433-0.764,5.169-0.878
		c4.243-0.277,8.402,0.304,12.431,1.685c0.99,0.338,1.951,0.793,2.869,1.299c1.678,0.925,2.537,2.237,2.258,4.309
		c-0.714,5.299-1.25,10.622-1.938,15.926c-2.912,22.519-5.892,45.032-7.437,67.701c-0.883,12.953-1.528,25.915-0.424,38.893
		c0.103,1.224,0.233,2.445,0.361,3.666c0.341,3.255-0.519,5.016-3.577,6.179c-2.021,0.769-4.21,1.209-6.363,1.482
		c-3.445,0.438-6.835-0.103-10.071-1.362c-2.966-1.154-5.369-2.962-6.461-6.128C659.246,133.414,659.033,133.146,658.767,132.678
		 M632.618,113.628c0.313,1.57,0.503,3.708,1.188,5.673c0.885,2.538,1.855,5.148,3.346,7.351c2.394,3.537,6.266,4.083,9.608,1.432
		c1.809-1.436,3.366-3.331,4.635-5.279c2.9-4.451,4.466-9.489,5.742-14.608c2.171-8.716,2.748-17.631,3.225-26.554
		c0.216-4.035,0.208-8.066-1.017-11.979c-1.81-5.777-6.499-8.025-12.195-5.877c-2.729,1.029-4.727,2.963-6.424,5.242
		c-2.381,3.198-3.979,6.796-5.176,10.574C632.08,90.554,631.407,101.757,632.618,113.628"/>
	<path clip-path="url(#SVGID_2_)" fill="#FFFFFF" d="M475.006,174.6c-7.065-2.526-13.016-6.304-18.01-11.517
		c-6.798-7.095-10.787-15.671-13.058-25.128c-2.905-12.093-2.884-24.331-1.703-36.607c0.462-4.796,1.171-9.567,1.755-14.352
		c0.202-1.652,0.434-3.305,0.532-4.964c0.14-2.408,0.338-2.837,2.631-3.549c3.932-1.22,7.972-1.263,11.976-0.563
		c2.221,0.388,4.472,0.998,6.509,1.941c3.287,1.522,4.24,3.769,3.416,7.317c-2.109,9.064-3.723,18.201-4.244,27.506
		c-0.479,8.538-0.077,17.006,2.173,25.307c1.622,5.986,4.126,11.545,8.139,16.343c0.553,0.661,1.159,1.274,2.021,2.213
		c0.272-1.033,0.518-1.723,0.636-2.433c3.89-23.606,7.787-47.212,11.632-70.827c0.563-3.455,0.977-6.943,1.25-10.432
		c0.118-1.509,0.712-2.315,2.093-2.538c1.292-0.21,2.613-0.407,3.914-0.362c4.327,0.149,8.525,1.022,12.533,2.676
		c1.128,0.465,2.207,1.071,3.256,1.7c1.78,1.068,2.352,2.552,1.937,4.683c-1.309,6.708-2.53,13.436-3.637,20.18
		c-4.608,28.108-9.049,56.244-11.914,84.595c-0.757,7.491-1.024,15.032-1.479,22.552c-0.12,1.999-0.476,2.595-2.376,3.274
		c-0.33,0.118-0.671,0.223-1.015,0.271c-6.086,0.856-11.874-0.035-17.299-2.992c-3.04-1.658-4.235-4.322-4.001-7.675
		c0.423-6.028,0.861-12.057,1.362-18.078C474.267,180.355,474.66,177.582,475.006,174.6"/>
	<path clip-path="url(#SVGID_2_)" fill="#FFFFFF" d="M792.453,36.747c0.056-1.208,0.104-1.978,0.122-2.748
		c0.064-2.547,0.641-3.658,3.11-4.136c2.813-0.544,5.727-0.789,8.593-0.771c3.518,0.023,6.976,0.74,10.235,2.149
		c3.505,1.515,4.063,2.5,3.691,6.243c-1.118,11.252-2.427,22.489-3.31,33.76c-1.131,14.446-1.079,28.909,0.439,43.343
		c0.433,4.13-0.508,5.859-4.388,7.24c-5.681,2.023-11.375,1.866-16.927-0.552c-2.499-1.088-4.412-2.837-5.314-5.519
		c-0.105-0.308-0.332-0.574-0.605-1.032c-0.905,1.273-1.733,2.388-2.509,3.539c-11.419,16.912-37.077,13.757-45.782-3.777
		c-2.375-4.785-3.791-9.82-4.392-15.076c-1.403-12.269-0.261-24.339,3.29-36.157c1.805-6.009,4.505-11.611,8.434-16.551
		c7.832-9.844,18.18-14.589,30.639-14.833c4.294-0.084,8.305,1.205,12.026,3.347C790.557,35.647,791.304,36.081,792.453,36.747
		 M762.119,95.631c0.414,1.815,0.79,4.354,1.601,6.746c0.72,2.129,1.666,4.277,2.964,6.094c2.556,3.579,6.468,4.054,9.81,1.176
		c1.69-1.455,3.106-3.337,4.296-5.245c2.334-3.745,3.685-7.936,4.853-12.172c2.915-10.564,3.718-21.392,3.832-32.279
		c0.03-2.772-0.399-5.62-1.083-8.315c-1.805-7.113-8.345-9.379-14.256-4.962c-1.653,1.235-3.065,2.882-4.316,4.544
		c-2.288,3.039-3.727,6.545-4.848,10.16C761.566,72.353,760.996,83.574,762.119,95.631"/>
	<path clip-path="url(#SVGID_2_)" fill="#FFFFFF" d="M549.627,76.815c2.738-2.883,4.972-5.471,7.447-7.798
		c7.117-6.689,15.532-10.052,25.381-9.339c8.426,0.61,13.749,5.246,15.653,13.469c1.103,4.761,1.069,9.569,0.563,14.387
		c-1.271,12.122-2.392,24.261-2.229,36.46c0.097,7.179,0.61,14.356,1.051,21.526c0.226,3.651-0.609,5.442-4.032,6.75
		c-5.909,2.259-11.857,2.164-17.67-0.368c-3.392-1.477-5.309-4.068-5.631-7.899c-0.693-8.24-0.584-16.48,0.071-24.694
		c0.907-11.353,2.118-22.682,3.159-34.026c0.168-1.824,0.342-3.691,0.148-5.498c-0.48-4.505-3.407-6.021-7.444-4.011
		c-2.575,1.283-4.52,3.302-6.276,5.508c-2.919,3.666-5.068,7.779-6.829,12.1c-4.009,9.842-5.844,20.163-6.791,30.688
		c-0.829,9.212-0.388,18.39,0.576,27.56c0.535,5.085-0.731,7.08-5.659,8.414c-4.76,1.288-9.546,1.262-14.252-0.342
		c-4.37-1.491-6.968-4.25-7.343-9.164c-0.817-10.697-0.776-21.385,0.106-32.049c1.112-13.448,2.566-26.868,3.852-40.303
		c0.2-2.092,0.351-4.193,0.399-6.292c0.062-2.635,0.687-3.568,3.219-4.368c0.333-0.105,0.676-0.188,1.02-0.252
		c6.104-1.147,12.064-0.552,17.821,1.702c3.553,1.391,4.077,2.416,3.838,6.182C549.75,75.574,549.702,75.987,549.627,76.815"/>
	<path clip-path="url(#SVGID_2_)" fill="#FFFFFF" d="M696.982,124.074c-1.008-12.98-0.424-25.935,0.774-38.866
		c1.02-10.996,2.225-21.976,3.322-32.966c0.174-1.742,0.246-3.497,0.302-5.248c0.091-2.821,0.691-3.899,3.447-4.421
		c2.645-0.501,5.386-0.704,8.082-0.675c3.697,0.039,7.325,0.759,10.728,2.3c3.196,1.447,3.741,2.442,3.398,5.916
		c-1.122,11.338-2.437,22.662-3.329,34.018c-1.137,14.446-1.068,28.908,0.445,43.341c0.428,4.066-0.546,5.808-4.453,7.198
		c-5.408,1.924-10.863,1.823-16.206-0.286c-4.032-1.592-6.431-4.464-6.426-8.999C697.067,124.949,697.012,124.511,696.982,124.074"
		/>
	<path clip-path="url(#SVGID_2_)" fill="#FFFFFF" d="M715.706,0.488c4.731-0.47,9.347,1.678,12.66,6.483
		c4.383,6.353,3.539,15.101-1.847,20.225c-4.82,4.584-11.946,5.112-17.375,1.287c-7.417-5.226-8.797-16.379-2.878-23.249
		C708.429,2.723,711.344,1.117,715.706,0.488"/>
	<path clip-path="url(#SVGID_2_)" fill="#FFFFFF" d="M313.218,245.497c0.123-0.506,0.501-0.94,1.189-0.94h0.879
		c0.44,0,0.753,0.248,0.879,0.627l8.529,28.409h0.126l17.056-28.409c0.252-0.379,0.566-0.627,1.067-0.627h0.94
		c0.439,0,0.879,0.435,0.879,0.94l0.566,42.144c0,0.876-0.566,1.441-1.257,1.441h-6.021c-0.627,0-0.94-0.501-0.94-0.94l0.504-22.516
		h-0.191l-13.107,23.395c-0.188,0.374-0.563,0.688-1.064,0.688h-1.005c-0.501,0-0.753-0.314-0.879-0.688l-6.395-23.395h-0.126
		l-6.021,22.516c-0.126,0.439-0.439,0.94-1.192,0.94h-5.956c-0.691,0-1.128-0.565-0.879-1.441L313.218,245.497z"/>
	<path clip-path="url(#SVGID_2_)" fill="#FFFFFF" d="M373.054,287.888c-0.065,0.627-0.692,1.193-1.258,1.193h-2.443
		c-0.378,0-0.818-0.188-1.005-1.067l-0.375-1.881c-0.94,0.88-3.638,3.575-8.092,3.575c-5.268,0-9.22-5.143-9.22-11.541
		c0-8.088,5.585-14.801,12.921-14.801c3.573,0,6.146,2.259,7.025,3.452l1.128-2.008c0.252-0.438,0.566-0.813,1.128-0.813h2.446
		c0.566,0,1.005,0.501,0.879,1.188L373.054,287.888z M367.66,273.654c-0.191-1.066-1.445-3.514-4.078-3.514
		c-2.887,0-5.895,2.947-5.895,7.901c0,2.699,1.567,4.893,4.14,4.893c2.634,0,4.641-2.82,5.08-4.074L367.66,273.654z"/>
	<path clip-path="url(#SVGID_2_)" fill="#FFFFFF" d="M379.766,278.167c0-8.152,5.767-14.801,13.168-14.801
		c1.82,0,3.827,0.631,4.706,1.193l2.568-18.188c0.127-1.066,1.759-1.188,2.634-1.188h4.205c0.563,0,1.002,0.562,0.941,1.188
		l-5.833,41.518c-0.062,0.627-0.689,1.191-1.254,1.191h-2.447c-0.375,0-0.814-0.187-1.002-1.065l-0.378-1.882
		c-0.94,0.881-4.013,3.574-8.088,3.574C383.718,289.708,379.766,284.567,379.766,278.167 M390.927,282.935
		c2.634,0,4.641-2.821,5.081-4.075l0.691-7.213c0,0-1.253-1.506-3.826-1.506c-3.26,0-6.086,3.573-6.086,7.9
		C386.787,280.741,388.359,282.935,390.927,282.935"/>
	<path clip-path="url(#SVGID_2_)" fill="#FFFFFF" d="M423.294,263.368c4.954,0,8.026,2.823,8.026,6.646
		c0,6.399-9.347,8.532-15.741,8.593c-0.192,2.573,1.001,4.579,4.135,4.579c1.506,0,3.387-0.752,4.454-1.505
		c0.565-0.375,1.131-0.501,1.444,0l2.068,2.947c0.314,0.438,0.314,1.127-0.187,1.632c-2.195,2.007-5.333,3.448-8.968,3.448
		c-6.021,0-9.974-5.143-9.974-11.162C408.553,270.707,414.513,263.368,423.294,263.368 M424.233,270.767
		c0-0.875-0.691-1.566-2.133-1.566c-2.508,0-4.893,2.385-5.581,4.514C419.528,273.653,424.233,272.774,424.233,270.767"/>
	<path clip-path="url(#SVGID_2_)" fill="#FFFFFF" d="M450.075,265.186c0.126-0.688,0.687-1.189,1.253-1.189h5.52
		c0.563,0,1.066,0.501,0.94,1.189l-3.2,22.703c-0.06,0.627-0.687,1.191-1.254,1.191h-5.519c-0.563,0-1.001-0.564-0.941-1.191
		L450.075,265.186z M451.641,251.326c0-2.695,2.32-4.89,4.828-4.89c2.198,0,3.767,1.693,3.767,3.827
		c0,2.634-2.387,4.827-4.954,4.827C453.148,255.09,451.641,253.397,451.641,251.326"/>
	<path clip-path="url(#SVGID_2_)" fill="#FFFFFF" d="M464.436,265.186c0.064-0.688,0.627-1.188,1.192-1.188h2.447
		c0.375,0,0.813,0.313,0.879,0.75l0.562,2.319c1.192-1.066,4.267-3.7,8.467-3.7c6.899,0,9.596,5.959,8.654,12.48l-1.692,12.042
		c-0.063,0.627-0.628,1.192-1.189,1.192h-5.459c-0.627,0-0.94-0.565-0.876-1.192l1.817-12.416c0.438-3.261-0.689-5.333-3.197-5.333
		c-3.263,0-5.394,3.513-5.394,3.513l-2.007,14.236c-0.126,0.879-0.438,1.192-1.317,1.192h-5.206c-0.563,0-1.002-0.565-0.876-1.192
		L464.436,265.186z"/>
	<path clip-path="url(#SVGID_2_)" fill="#FFFFFF" d="M512.294,246.372c0.062-0.627,0.627-1.188,1.188-1.188h6.146
		c0.566,0,1.007,0.562,0.881,1.188l-5.834,41.518c-0.062,0.627-0.627,1.191-1.193,1.191h-6.146c-0.563,0-1.002-0.564-0.876-1.191
		L512.294,246.372z"/>
	<path clip-path="url(#SVGID_2_)" fill="#FFFFFF" d="M525.841,265.186c0.064-0.688,0.627-1.188,1.192-1.188h2.447
		c0.375,0,0.813,0.313,0.88,0.75l0.561,2.319c1.192-1.066,4.267-3.7,8.468-3.7c6.899,0,9.595,5.959,8.653,12.48l-1.692,12.042
		c-0.062,0.627-0.627,1.192-1.189,1.192h-5.459c-0.627,0-0.94-0.565-0.875-1.192l1.816-12.416c0.438-3.261-0.688-5.333-3.196-5.333
		c-3.265,0-5.394,3.513-5.394,3.513l-2.007,14.236c-0.126,0.879-0.438,1.192-1.318,1.192h-5.206c-0.563,0-1.002-0.565-0.875-1.192
		L525.841,265.186z"/>
	<path clip-path="url(#SVGID_2_)" fill="#FFFFFF" d="M552.309,278.167c0-8.152,5.769-14.801,13.17-14.801
		c1.818,0,3.825,0.631,4.705,1.193l2.568-18.188c0.126-1.066,1.758-1.188,2.634-1.188h4.204c0.563,0,1.002,0.562,0.941,1.188
		l-5.833,41.518c-0.063,0.627-0.689,1.191-1.254,1.191h-2.447c-0.375,0-0.813-0.187-1.002-1.065l-0.378-1.882
		c-0.94,0.881-4.013,3.574-8.088,3.574C556.261,289.708,552.309,284.567,552.309,278.167 M563.471,282.935
		c2.635,0,4.642-2.821,5.08-4.075l0.691-7.213c0,0-1.253-1.506-3.826-1.506c-3.26,0-6.085,3.573-6.085,7.9
		C559.331,280.741,560.902,282.935,563.471,282.935"/>
	<path clip-path="url(#SVGID_2_)" fill="#FFFFFF" d="M584.61,265.186c0.126-0.688,0.687-1.189,1.254-1.189h5.519
		c0.563,0,1.066,0.501,0.94,1.189l-3.199,22.703c-0.061,0.627-0.688,1.191-1.254,1.191h-5.52c-0.563,0-1.001-0.564-0.941-1.191
		L584.61,265.186z M586.177,251.326c0-2.695,2.32-4.89,4.828-4.89c2.197,0,3.766,1.693,3.766,3.827c0,2.634-2.386,4.827-4.954,4.827
		C587.684,255.09,586.177,253.397,586.177,251.326"/>
	<path clip-path="url(#SVGID_2_)" fill="#FFFFFF" d="M617.978,287.888c-0.066,0.627-0.693,1.193-1.258,1.193h-2.443
		c-0.379,0-0.818-0.188-1.006-1.067l-0.374-1.881c-0.94,0.88-3.639,3.575-8.092,3.575c-5.269,0-9.221-5.143-9.221-11.541
		c0-8.088,5.584-14.801,12.92-14.801c3.574,0,6.146,2.259,7.026,3.452l1.127-2.008c0.253-0.438,0.567-0.813,1.128-0.813h2.446
		c0.567,0,1.006,0.501,0.88,1.188L617.978,287.888z M612.583,273.654c-0.19-1.066-1.444-3.514-4.079-3.514
		c-2.886,0-5.895,2.947-5.895,7.901c0,2.699,1.568,4.893,4.14,4.893c2.635,0,4.642-2.82,5.081-4.074L612.583,273.654z"/>
	<path clip-path="url(#SVGID_2_)" fill="#FFFFFF" d="M642.188,270.58h-2.133c-0.627,0-1.002-0.564-0.939-1.191l0.627-4.202
		c0.06-0.688,0.564-1.189,1.191-1.189h2.134l1.002-6.772c1.38-9.033,5.833-12.668,12.479-12.668c3.009,0,5.959,1.44,6.774,2.442
		c0.313,0.313,0.313,1.005,0.061,1.444l-2.194,3.888c-0.501,0.814-1.065,0.879-1.692,0.501c-0.566-0.313-1.632-0.876-3.135-0.876
		c-2.386,0-3.889,1.816-4.393,5.269l-0.939,6.772h5.393c0.627,0,1.005,0.501,0.879,1.189l-0.564,4.202
		c-0.063,0.627-0.627,1.191-1.254,1.191h-5.395l-5.206,36.124c-0.123,0.626-0.688,1.192-1.254,1.192h-5.834
		c-0.562,0-1.001-0.566-0.875-1.192L642.188,270.58z"/>
	<path clip-path="url(#SVGID_2_)" fill="#FFFFFF" d="M671.729,263.367c5.77,0,9.969,5.271,9.969,11.414
		c0,8.092-6.269,14.927-13.669,14.927c-5.834,0-9.974-5.455-9.974-11.475C658.056,270.205,664.203,263.367,671.729,263.367
		 M674.737,275.473c0-2.947-1.565-5.333-3.947-5.333c-3.073,0-5.833,3.325-5.833,7.34c0,3.008,1.565,5.455,4.013,5.455
		C671.978,282.935,674.737,279.547,674.737,275.473"/>
	<path clip-path="url(#SVGID_2_)" fill="#FFFFFF" d="M688.159,265.186c0.064-0.688,0.627-1.188,1.192-1.188h2.447
		c0.375,0,0.813,0.375,0.939,0.813l0.566,2.447c0.939-1.319,3.574-3.892,6.772-3.892c1.816,0,3.322,0.565,3.949,1.006
		c0.44,0.313,0.501,0.813,0.126,1.506l-2.319,4.074c-0.314,0.566-0.753,0.754-1.319,0.501c-0.563-0.248-1.567-0.375-2.129-0.375
		c-2.321,0-3.827,2.635-3.827,2.635l-2.132,15.176c-0.126,0.879-0.566,1.192-1.442,1.192h-5.144c-0.563,0-1.002-0.565-0.876-1.192
		L688.159,265.186z"/>
	<path clip-path="url(#SVGID_2_)" fill="#FFFFFF" d="M718.705,265.313c-0.126-0.814,0.313-1.315,1.066-1.315h4.829
		c0.377,0,0.817,0.313,0.878,0.749l1.694,10.6h0.063l7.21-11.414c0.252-0.375,0.44-0.565,1.005-0.565h0.501
		c0.44,0,0.689,0.252,0.815,0.565l3.7,11.414h0.064l4.827-10.6c0.314-0.688,0.815-0.749,1.442-0.749h4.579
		c0.813,0,1.066,0.627,0.688,1.441l-10.661,23.582c-0.187,0.374-0.561,0.688-1.128,0.688h-0.252c-0.435,0-0.688-0.252-0.813-0.565
		l-5.08-14.172h-0.063l-9.22,14.172c-0.188,0.313-0.565,0.565-1.001,0.565h-0.252c-0.501,0-0.815-0.313-0.879-0.688L718.705,265.313
		z"/>
	<path clip-path="url(#SVGID_2_)" fill="#FFFFFF" d="M766.498,263.367c5.77,0,9.971,5.271,9.971,11.414
		c0,8.092-6.271,14.927-13.671,14.927c-5.833,0-9.973-5.455-9.973-11.475C752.825,270.205,758.973,263.367,766.498,263.367
		 M769.508,275.473c0-2.947-1.567-5.333-3.949-5.333c-3.073,0-5.833,3.325-5.833,7.34c0,3.008,1.566,5.455,4.013,5.455
		C766.747,282.935,769.508,279.547,769.508,275.473"/>
	<path clip-path="url(#SVGID_2_)" fill="#FFFFFF" d="M782.932,265.186c0.063-0.688,0.627-1.188,1.192-1.188h2.444
		c0.378,0,0.816,0.375,0.942,0.813l0.563,2.447c0.939-1.319,3.574-3.892,6.772-3.892c1.819,0,3.325,0.565,3.952,1.006
		c0.44,0.313,0.501,0.813,0.127,1.506l-2.323,4.074c-0.314,0.566-0.75,0.754-1.316,0.501c-0.565-0.248-1.567-0.375-2.132-0.375
		c-2.321,0-3.826,2.635-3.826,2.635l-2.13,15.176c-0.126,0.879-0.566,1.192-1.445,1.192h-5.141c-0.566,0-1.005-0.565-0.879-1.192
		L782.932,265.186z"/>
	<path clip-path="url(#SVGID_2_)" fill="#FFFFFF" d="M805.26,246.372c0.062-0.627,0.688-1.188,1.254-1.188h5.52
		c0.566,0,1.001,0.562,0.941,1.188l-5.834,41.518c-0.062,0.627-0.688,1.191-1.254,1.191h-5.58c-0.567,0-0.941-0.564-0.881-1.191
		L805.26,246.372z"/>
	<path clip-path="url(#SVGID_2_)" fill="#FFFFFF" d="M813.662,278.167c0-8.152,5.768-14.801,13.169-14.801
		c1.819,0,3.827,0.631,4.706,1.193l2.567-18.188c0.126-1.066,1.759-1.188,2.634-1.188h4.205c0.563,0,1.002,0.562,0.941,1.188
		l-5.833,41.518c-0.063,0.627-0.689,1.191-1.254,1.191h-2.447c-0.375,0-0.813-0.187-1.002-1.065l-0.378-1.882
		c-0.94,0.881-4.014,3.574-8.088,3.574C817.614,289.708,813.662,284.567,813.662,278.167 M824.824,282.935
		c2.634,0,4.641-2.821,5.079-4.075l0.692-7.213c0,0-1.253-1.506-3.826-1.506c-3.26,0-6.086,3.573-6.086,7.9
		C820.684,280.741,822.256,282.935,824.824,282.935"/>
	<path clip-path="url(#SVGID_2_)" fill="#FF9933" d="M36.867,111.842L1.304,202.715c-4.047,10.342,1.68,21.924,12.356,24.986
		l57.081,16.368C95.231,158.658,36.868,111.843,36.867,111.842"/>
	<path clip-path="url(#SVGID_2_)" fill="#138808" d="M223.709,165.439c-2.005,0.252-74.596,9.947-98.748,94.178l57.036,16.354
		c10.676,3.062,21.671-3.726,23.719-14.642L223.709,165.439z"/>
	<path clip-path="url(#SVGID_2_)" fill="#FFFFFF" d="M231.651,123.111c1.794-9.558-3.981-18.912-13.329-21.593l-30.479-8.739
		l3.056-10.656c6.259-21.832-4.702-45.64-26.069-53.346c-23.431-8.45-48.826,4.811-55.58,28.366l-3.47,12.104L75.3,60.508
		c-9.349-2.681-19.201,2.192-22.746,11.248l-7.897,20.179c33.375,20.69,44.501,67.97,76.887,77.277
		c32.384,9.266,66.861-24.903,106.109-24.79L231.651,123.111z M118.632,72.932l3.19-11.122
		c4.106-14.319,18.036-24.154,32.762-21.905c17.817,2.721,28.682,20.326,23.877,37.084l-3.471,12.104L118.632,72.932L118.632,72.932
		z M124.761,158.078c-10.318-2.959-16.004-14.705-12.697-26.235c3.306-11.531,14.351-18.48,24.671-15.521
		c10.318,2.959,16.004,14.705,12.697,26.235C146.125,154.088,135.08,161.036,124.761,158.078"/>
</g>
</svg>
